General

Format                           : MPEG-4
Format profile                   : Base Media
Codec ID                         : isom
File size                        : 56.5 MiB
Duration                         : 2mn 33s
Overall bit rate                 : 3 078 Kbps
Encoded date                     : UTC 2012-04-04 21:35:23
Tagged date                      : UTC 2012-04-04 21:35:23

Video
ID                               : 1
Format                           : AVC
Format/Info                      : Advanced Video Codec
Format profile                   : High@L3.0
Format settings, CABAC           : Yes
Format settings, ReFrames        : 2 frames
Codec ID                         : avc1
Codec ID/Info                    : Advanced Video Coding
Duration                         : 2mn 33s
Bit rate mode                    : Variable
Bit rate                         : 3 009 Kbps
Nominal bit rate                 : 3 242 Kbps
Maximum bit rate                 : 5 644 Kbps
Width                            : 720 pixels
Height                           : 480 pixels
Display aspect ratio             : 16:9
Original display aspect ratio    : 16:9
Frame rate mode                  : Constant
Frame rate                       : 23.976 fps
Standard                         : NTSC
Color space                      : YUV
Chroma subsampling               : 4:2:0
Bit depth                        : 8 bits
Scan type                        : Progressive
Bits/(Pixel*Frame)               : 0.363
Stream size                      : 55.2 MiB (98%)


Audio
ID                               : 2
Format                           : AAC
Format/Info                      : Advanced Audio Codec
Format profile                   : LC
Codec ID                         : 40
Duration                         : 2mn 33s
Bit rate mode                    : Variable
Bit rate                         : 62.9 Kbps
Maximum bit rate                 : 74.6 Kbps
Channel(s)                       : 2 channels
Channel positions                : Front: L R
Sampling rate                    : 44.1 KHz
Compression mode                 : Lossy
Stream size                      : 1.15 MiB (2%)